<svg width="15" height="17" viewBox="0 0 15 17" fill="none" xmlns="http://www.w3.org/2000/svg">
<path d="M0.648438 4.03906H14.204" stroke="#454545" stroke-width="1.3" stroke-linecap="round" stroke-linejoin="round"/>
<path d="M5.73047 7.42773V12.5111" stroke="#454545" stroke-width="1.3" stroke-linecap="round" stroke-linejoin="round"/>
<path d="M9.12109 7.42773V12.5111" stroke="#454545" stroke-width="1.3" stroke-linecap="round" stroke-linejoin="round"/>
<path d="M1.49609 4.03906L2.34332 14.2057C2.34332 14.6551 2.52184 15.0861 2.83961 15.4039C3.15738 15.7217 3.58837 15.9002 4.03776 15.9002H10.8155C11.2649 15.9002 11.6959 15.7217 12.0137 15.4039C12.3315 15.0861 12.51 14.6551 12.51 14.2057L13.3572 4.03906" stroke="#454545" stroke-width="1.3" stroke-linecap="round" stroke-linejoin="round"/>
<path d="M4.88281 4.03928V1.49761C4.88281 1.27292 4.97207 1.05742 5.13096 0.898536C5.28984 0.739651 5.50534 0.650391 5.73003 0.650391H9.11892C9.34362 0.650391 9.55912 0.739651 9.718 0.898536C9.87689 1.05742 9.96615 1.27292 9.96615 1.49761V4.03928" stroke="#454545" stroke-width="1.3" stroke-linecap="round" stroke-linejoin="round"/>
</svg>
