<svg width="11" height="11" viewBox="0 0 11 11" fill="none" xmlns="http://www.w3.org/2000/svg">
<path d="M6.42285 8.20703L6.61426 8.21777C6.7956 8.23937 6.94905 8.29387 7.08887 8.3877C7.27341 8.51164 7.43116 8.70081 7.60156 8.95898V8.95996L7.76953 9.21973H7.77051C7.90105 9.41296 7.97576 9.48388 8.06445 9.52051C8.14654 9.55434 8.22048 9.56349 8.34277 9.53223C8.46938 9.49983 8.64496 9.42522 8.92773 9.28906L9.09961 9.20508L9.34766 9.08691C9.57859 8.98204 9.76797 8.91228 9.97559 8.86035C10.1746 8.8106 10.377 8.93185 10.4268 9.13086C10.4764 9.3298 10.3552 9.53126 10.1562 9.58105C9.99112 9.62234 9.8323 9.68243 9.62207 9.7793V9.77832L9.12598 10.0176C8.79031 10.1761 8.55891 10.2683 8.35938 10.2979C8.15625 10.3279 7.9883 10.2924 7.78125 10.207C7.49991 10.091 7.34114 9.92108 7.11621 9.57715H7.11523L7.03223 9.44727V9.44629C6.91205 9.25692 6.82252 9.13677 6.7373 9.06152C6.65478 8.98873 6.57515 8.95794 6.4707 8.95117V8.9502L6.42188 8.94922C6.36463 8.94925 6.32297 8.9515 6.27832 8.96289C6.23333 8.9744 6.18227 8.9964 6.1084 9.04004C5.95864 9.12853 5.72615 9.2995 5.27832 9.63184C4.52773 10.1888 3.94749 10.46 3.20801 10.46C2.31906 10.4599 1.48096 10.2966 0.696289 9.96973L0.552734 9.91016L0.704102 9.875L1.93945 9.58984L1.9502 9.58691L1.96094 9.58984C2.36177 9.67515 2.77734 9.71775 3.20801 9.71777C3.74522 9.71777 4.19361 9.51183 4.83594 9.03516L5.33301 8.66797C5.60495 8.47032 5.77585 8.35684 5.91406 8.29199C6.05557 8.22562 6.163 8.21014 6.30664 8.20703H6.42285ZM6.37305 0.602539C7.1098 -0.134256 8.30518 -0.134234 9.04199 0.602539C9.7784 1.33934 9.77857 2.53382 9.04199 3.27051L8.62793 3.68262C8.86163 3.97907 8.97858 4.28577 8.97852 4.58008C8.9784 4.88648 8.85303 5.17361 8.61523 5.41211L7.3291 6.69824H7.32812C7.18297 6.84285 6.94857 6.84226 6.80371 6.69727C6.65881 6.55219 6.65874 6.31783 6.80371 6.17285L8.08887 4.88672C8.18575 4.78944 8.23654 4.68486 8.2373 4.57031C8.23799 4.46597 8.19566 4.34789 8.09961 4.21191L3.60156 8.70996C3.46725 8.84427 3.29834 8.93865 3.11328 8.98145L0.506836 9.58301C0.239458 9.64471 -5.21718e-06 9.40506 0.0615234 9.1377L0.663086 6.53125C0.705846 6.34609 0.799222 6.17637 0.933594 6.04199L6.37305 0.602539ZM8.5166 1.12793C8.0699 0.681252 7.34509 0.68125 6.89844 1.12793L1.45898 6.56738C1.42306 6.60331 1.39817 6.64874 1.38672 6.69824L0.917969 8.72461L2.94531 8.25781C2.99488 8.24637 3.04118 8.22054 3.07715 8.18457L8.5166 2.74512C8.96307 2.29853 8.96291 1.57462 8.5166 1.12793Z" fill="#454545" stroke="#454545" stroke-width="0.1"/>
</svg>
