<svg width="12" height="12" viewBox="0 0 12 12" fill="none" xmlns="http://www.w3.org/2000/svg">
<g clip-path="url(#clip0_1_117)">
<path d="M1.5 6C1.5 6.59095 1.6164 7.17611 1.84254 7.72208C2.06869 8.26804 2.40016 8.76412 2.81802 9.18198C3.23588 9.59984 3.73196 9.93131 4.27792 10.1575C4.82389 10.3836 5.40905 10.5 6 10.5C6.59095 10.5 7.17611 10.3836 7.72208 10.1575C8.26804 9.93131 8.76412 9.59984 9.18198 9.18198C9.59984 8.76412 9.93131 8.26804 10.1575 7.72208C10.3836 7.17611 10.5 6.59095 10.5 6C10.5 5.40905 10.3836 4.82389 10.1575 4.27792C9.93131 3.73196 9.59984 3.23588 9.18198 2.81802C8.76412 2.40016 8.26804 2.06869 7.72208 1.84254C7.17611 1.6164 6.59095 1.5 6 1.5C5.40905 1.5 4.82389 1.6164 4.27792 1.84254C3.73196 2.06869 3.23588 2.40016 2.81802 2.81802C2.40016 3.23588 2.06869 3.73196 1.84254 4.27792C1.6164 4.82389 1.5 5.40905 1.5 6Z" stroke="#454545" stroke-linecap="round" stroke-linejoin="round"/>
<path d="M6 8.5V8.505" stroke="#454545" stroke-linecap="round" stroke-linejoin="round"/>
<path d="M6 6.75057C5.99079 6.58826 6.03458 6.42735 6.12476 6.29208C6.21494 6.15681 6.34663 6.0545 6.5 6.00057C6.68794 5.9287 6.85662 5.81419 6.99278 5.66605C7.12894 5.51791 7.22886 5.34018 7.28466 5.14687C7.34046 4.95355 7.35063 4.74992 7.31436 4.552C7.2781 4.35409 7.19638 4.1673 7.07566 4.00633C6.95493 3.84536 6.79849 3.71461 6.61865 3.62438C6.4388 3.53415 6.24047 3.48689 6.03926 3.48633C5.83805 3.48578 5.63946 3.53193 5.45912 3.62116C5.27878 3.7104 5.12162 3.84028 5 4.00057" stroke="#454545" stroke-linecap="round" stroke-linejoin="round"/>
<path d="M1.5 6C1.5 6.59095 1.6164 7.17611 1.84254 7.72208C2.06869 8.26804 2.40016 8.76412 2.81802 9.18198C3.23588 9.59984 3.73196 9.93131 4.27792 10.1575C4.82389 10.3836 5.40905 10.5 6 10.5C6.59095 10.5 7.17611 10.3836 7.72208 10.1575C8.26804 9.93131 8.76412 9.59984 9.18198 9.18198C9.59984 8.76412 9.93131 8.26804 10.1575 7.72208C10.3836 7.17611 10.5 6.59095 10.5 6C10.5 5.40905 10.3836 4.82389 10.1575 4.27792C9.93131 3.73196 9.59984 3.23588 9.18198 2.81802C8.76412 2.40016 8.26804 2.06869 7.72208 1.84254C7.17611 1.6164 6.59095 1.5 6 1.5C5.40905 1.5 4.82389 1.6164 4.27792 1.84254C3.73196 2.06869 3.23588 2.40016 2.81802 2.81802C2.40016 3.23588 2.06869 3.73196 1.84254 4.27792C1.6164 4.82389 1.5 5.40905 1.5 6Z" stroke="#454545" stroke-width="0.9" stroke-linecap="round" stroke-linejoin="round"/>
<path d="M6 6.75057C5.99079 6.58826 6.03458 6.42735 6.12476 6.29208C6.21494 6.15681 6.34663 6.0545 6.5 6.00057C6.68794 5.9287 6.85662 5.81419 6.99278 5.66605C7.12894 5.51791 7.22886 5.34018 7.28466 5.14687C7.34046 4.95355 7.35063 4.74992 7.31436 4.552C7.2781 4.35409 7.19638 4.1673 7.07566 4.00633C6.95493 3.84536 6.79849 3.71461 6.61865 3.62438C6.4388 3.53415 6.24047 3.48689 6.03926 3.48633C5.83805 3.48578 5.63946 3.53193 5.45912 3.62116C5.27878 3.7104 5.12162 3.84028 5 4.00057" stroke="#454545" stroke-width="0.9" stroke-linecap="round" stroke-linejoin="round"/>
<path d="M6 8.5V8.505" stroke="#454545" stroke-width="0.9" stroke-linecap="round" stroke-linejoin="round"/>
</g>
<defs>
<clipPath id="clip0_1_117">
<rect width="12" height="12" fill="white"/>
</clipPath>
</defs>
</svg>
