<svg width="17" height="17" viewBox="0 0 17 17" fill="none" xmlns="http://www.w3.org/2000/svg">
<path d="M0.601562 13.8683H3.93484L12.6847 4.77922C12.9036 4.55187 13.0772 4.28197 13.1956 3.98492C13.3141 3.68787 13.3751 3.36949 13.3751 3.04797C13.3751 2.72645 13.3141 2.40807 13.1956 2.11102C13.0772 1.81397 12.9036 1.54407 12.6847 1.31672C12.4658 1.08937 12.206 0.909022 11.92 0.78598C11.6341 0.662938 11.3276 0.599609 11.0181 0.599609C10.7085 0.599609 10.4021 0.662938 10.1161 0.78598C9.83013 0.909022 9.5703 1.08937 9.35143 1.31672L0.601562 10.4058V13.8683Z" stroke="#454545" stroke-width="1.2" stroke-linecap="round" stroke-linejoin="round"/>
<path d="M10.6016 13.002H15.6015" stroke="#454545" stroke-width="1.2" stroke-linecap="round" stroke-linejoin="round"/>
<path d="M13.1016 10.4062V15.6" stroke="#454545" stroke-width="1.2" stroke-linecap="round" stroke-linejoin="round"/>
</svg>
