<svg width="11" height="9" viewBox="0 0 11 9" fill="none" xmlns="http://www.w3.org/2000/svg">
<g clip-path="url(#clip0_1_967)">
<path d="M10.9756 6.35104C10.9756 6.60059 10.8471 6.83993 10.6184 7.01639C10.3897 7.19286 10.0795 7.29199 9.7561 7.29199H1.21951C0.896077 7.29199 0.58589 7.19286 0.357187 7.01639C0.128484 6.83993 0 6.60059 0 6.35104V2.11674C0 1.86718 0.128484 1.62784 0.357187 1.45138C0.58589 1.27492 0.896077 1.17578 1.21951 1.17578H9.7561C10.0795 1.17578 10.3897 1.27492 10.6184 1.45138C10.8471 1.62784 10.9756 1.86718 10.9756 2.11674V6.35104Z" fill="#DD2E44"/>
<path d="M0.169207 6.82174H10.8067C10.9161 6.67926 10.9744 6.51688 10.9756 6.35126H0C0 6.52346 0.0643293 6.68272 0.169207 6.82174ZM0 5.41031H10.9756V5.88079H0V5.41031ZM0 4.46935H10.9756V4.93983H0V4.46935ZM0 3.5284H10.9756V3.99887H0V3.5284ZM0 2.58744H10.9756V3.05792H0V2.58744ZM0.169207 1.64648C0.0595264 1.78889 0.00111237 1.95131 0 2.11696H10.9756C10.9756 1.94477 10.9113 1.78528 10.8064 1.64648H0.169207Z" fill="#EEEEEE"/>
<path d="M5.4878 1.17578H1.21951C0.896077 1.17578 0.58589 1.27492 0.357187 1.45138C0.128484 1.62784 0 1.86718 0 2.11674L0 4.46913H5.4878V1.17578Z" fill="#010066"/>
<path d="M2.90633 4.05455C2.48859 4.04828 2.09071 3.91584 1.79814 3.68569C1.50558 3.45554 1.34167 3.14604 1.34163 2.82366C1.34159 2.50128 1.50542 2.19175 1.79793 1.96156C2.09044 1.73136 2.48829 1.59887 2.90602 1.59254C3.12401 1.59254 3.33194 1.62688 3.52127 1.68781C3.20809 1.50865 2.82851 1.41198 2.43864 1.41211C1.95349 1.41211 1.48821 1.56081 1.14516 1.82551C0.802101 2.0902 0.609375 2.44921 0.609375 2.82354C0.609375 3.19788 0.802101 3.55688 1.14516 3.82158C1.48821 4.08627 1.95349 4.23498 2.43864 4.23498C2.82851 4.2351 3.20809 4.13844 3.52127 3.95928C3.32653 4.02225 3.11748 4.05464 2.90633 4.05455Z" fill="#FFCC4D"/>
<path d="M3.9396 2.07617L4.04143 2.45726L4.34722 2.14792L4.22466 2.52524L4.67435 2.34905L4.35149 2.64804L4.85575 2.6398L4.39691 2.80118L4.85575 2.96255L4.35149 2.95432L4.67435 3.25331L4.22466 3.07711L4.34722 3.45467L4.04143 3.1451L3.9396 3.52642L3.83777 3.1451L3.53197 3.45467L3.65454 3.07711L3.20484 3.25331L3.5274 2.95432L3.02344 2.96255L3.48228 2.80118L3.02344 2.6398L3.5274 2.64804L3.20484 2.34905L3.65454 2.52524L3.53197 2.14792L3.83777 2.45726L3.9396 2.07617Z" fill="#FFCC4D"/>
</g>
<defs>
<clipPath id="clip0_1_967">
<path d="M0 2C0 0.895431 0.895431 0 2 0H10.9756V8.4686H2C0.895429 8.4686 0 7.57317 0 6.4686V2Z" fill="white"/>
</clipPath>
</defs>
</svg>
